<svg width="64" height="64" viewBox="0 0 64 64" xmlns="http://www.w3.org/2000/svg">
  <!-- Background -->
  <circle cx="32" cy="32" r="30" fill="#1976d2"/>
  <circle cx="32" cy="32" r="26" fill="#2196f3"/>
  
  <!-- Wrench (left) -->
  <g transform="translate(20, 24) rotate(-30 0 0)">
    <rect x="-2" y="0" width="4" height="18" fill="#fafafa" rx="1"/>
    <circle cx="0" cy="0" r="3" fill="#fafafa"/>
    <circle cx="0" cy="0" r="1.5" fill="#1976d2"/>
  </g>
  
  <!-- Hammer (right) -->
  <g transform="translate(44, 24) rotate(30 0 0)">
    <rect x="-1.5" y="4" width="3" height="16" fill="#fafafa" rx="1"/>
    <rect x="-4" y="0" width="8" height="5" fill="#ff9800" rx="1"/>
  </g>
  
  <!-- Screwdriver (center) -->
  <g transform="translate(32, 22)">
    <rect x="-1.5" y="0" width="3" height="12" fill="#ffc107" rx="0.5"/>
    <rect x="-2" y="12" width="4" height="8" fill="#757575" rx="0.5"/>
  </g>
  
  <!-- Gear (bottom) -->
  <circle cx="32" cy="45" r="8" fill="#fafafa"/>
  <circle cx="32" cy="45" r="5" fill="#1976d2"/>
  <rect x="30.5" y="36" width="3" height="3" fill="#fafafa"/>
  <rect x="30.5" y="51" width="3" height="3" fill="#fafafa"/>
  <rect x="23" y="43.5" width="3" height="3" fill="#fafafa"/>
  <rect x="41" y="43.5" width="3" height="3" fill="#fafafa"/>
</svg>
